<?xml version="1.0" encoding="UTF-8"?>
<svg xmlns="http://www.w3.org/2000/svg" viewBox="0 0 810 810" width="64" height="64">
  <g fill="none" stroke="#86ff9e">
<path stroke-linecap="butt" transform="matrix(0.229739, 0.713947, -0.713947, 0.229739, 406.425463, 50.47201)" fill="none" stroke-linejoin="miter" d="M -0.00288908 2.001138 L 243.209262 2.001669 " stroke="currentColor" stroke-width="4" stroke-opacity="1" stroke-miterlimit="4"/>
      <path stroke-linecap="butt" transform="matrix(0.000000001309, 0.75, -0.75, 0.000000001309, 462.373036, 224.571263)" fill="none" stroke-linejoin="miter" d="M -0.00126747 2.00259 L 143.566448 2.00259 " stroke="currentColor" stroke-width="4" stroke-opacity="1" stroke-miterlimit="4"/>
      <path stroke-linecap="butt" transform="matrix(0.375, 0.649519, -0.649519, 0.375, 462.17398, 331.496401)" fill="none" stroke-linejoin="miter" d="M -0.000316149 1.999729 L 45.893645 1.998646 " stroke="currentColor" stroke-width="4" stroke-opacity="1" stroke-miterlimit="4"/>
      <path stroke-linecap="butt" transform="matrix(0, 0.75, -0.75, 0, 353.715924, 213.037041)" fill="none" stroke-linejoin="miter" d="M -0.00251338 2.001441 L 133.497493 2.001441 " stroke="currentColor" stroke-width="4" stroke-opacity="1" stroke-miterlimit="4"/>
      <path stroke-linecap="butt" transform="matrix(-0.232196, 0.713151, -0.713151, -0.232196, 406.421023, 51.396361)" fill="none" stroke-linejoin="miter" d="M 0.0014933 1.997588 L 227.305622 2.000602 " stroke="currentColor" stroke-width="4" stroke-opacity="1" stroke-miterlimit="4"/>
      <path stroke-linecap="butt" transform="matrix(0.415534, -0.624365, 0.624365, 0.415534, 343.36645, 323.742073)" fill="none" stroke-linejoin="miter" d="M -0.00259905 1.998688 L 18.298179 2.000092 " stroke="currentColor" stroke-width="4" stroke-opacity="1" stroke-miterlimit="4"/>
      <path stroke-linecap="butt" transform="matrix(0.0679052, 0.74692, -0.74692, 0.0679052, 346.109986, 324.443471)" fill="none" stroke-linejoin="miter" d="M -0.00140975 1.998479 L 111.958305 1.99993 " stroke="currentColor" stroke-width="4" stroke-opacity="1" stroke-miterlimit="4"/>
      <path stroke-linecap="butt" transform="matrix(0.559604, -0.499343, 0.499343, 0.559604, 322.392966, 432.801118)" fill="none" stroke-linejoin="miter" d="M -0.00239588 2.000629 L 51.511848 2.001703 " stroke="currentColor" stroke-width="4" stroke-opacity="1" stroke-miterlimit="4"/>
      <path stroke-linecap="butt" transform="matrix(0, 0.75, -0.75, 0, 324.887536, 433.929118)" fill="none" stroke-linejoin="miter" d="M 0.000759107 2.00109 L 138.828891 2.00109 " stroke="currentColor" stroke-width="4" stroke-opacity="1" stroke-miterlimit="4"/>
      <path stroke-linecap="butt" transform="matrix(0.75, 0, 0, 0.75, 282.539989, 738.499135)" fill="none" stroke-linejoin="miter" d="M -0.00123571 2.001154 L 311.920655 2.001154 " stroke="currentColor" stroke-width="4" stroke-opacity="1" stroke-miterlimit="4"/>
      <path stroke-linecap="butt" transform="matrix(0.496879, -0.561792, 0.561792, 0.496879, 515.35697, 739.001239)" fill="none" stroke-linejoin="miter" d="M -0.0011704 2.000883 L 42.294632 2.000367 " stroke="currentColor" stroke-width="4" stroke-opacity="1" stroke-miterlimit="4"/>
      <path stroke-linecap="butt" transform="matrix(0.221312, 0.716604, -0.716604, 0.221312, 493.827867, 569.752551)" fill="none" stroke-linejoin="miter" d="M 0.000124305 2.000217 L 203.798289 2.002206 " stroke="currentColor" stroke-width="4" stroke-opacity="1" stroke-miterlimit="4"/>
      <path stroke-linecap="butt" transform="matrix(0.0377639, 0.749049, -0.749049, 0.0377639, 488.202147, 457.268325)" fill="none" stroke-linejoin="miter" d="M -0.000199077 2.001224 L 150.65979 1.9987 " stroke="currentColor" stroke-width="4" stroke-opacity="1" stroke-miterlimit="4"/>
      <path stroke-linecap="butt" transform="matrix(0.500472, 0.558594, -0.558594, 0.500472, 466.840972, 432.923254)" fill="none" stroke-linejoin="miter" d="M 0.00056949 2.002528 L 41.926331 1.999473 " stroke="currentColor" stroke-width="4" stroke-opacity="1" stroke-miterlimit="4"/>
      <path stroke-linecap="butt" transform="matrix(0.127132, -0.739146, 0.739146, 0.127132, 464.241244, 433.66411)" fill="none" stroke-linejoin="miter" d="M 0.000354149 1.998874 L 97.235971 2.000971 " stroke="currentColor" stroke-width="4" stroke-opacity="1" stroke-miterlimit="4"/>
      <path stroke-linecap="butt" transform="matrix(-0.523773, -0.536807, 0.536807, -0.523773, 281.457001, 741.042751)" fill="none" stroke-linejoin="miter" d="M -0.00144076 1.999778 L 44.262381 2.00093 " stroke="currentColor" stroke-width="4" stroke-opacity="1" stroke-miterlimit="4"/>
      <path stroke-linecap="butt" transform="matrix(-0.253646, 0.705807, -0.705807, -0.253646, 324.797068, 538.556369)" fill="none" stroke-linejoin="miter" d="M 0.00156924 1.997644 L 252.467395 2.000506 " stroke="currentColor" stroke-width="4" stroke-opacity="1" stroke-miterlimit="4"/>
      <path stroke-linecap="butt" transform="matrix(-0.709789, 0.24228, -0.24228, -0.709789, 492.871035, 571.615431)" fill="none" stroke-linejoin="miter" d="M -0.0005401 2.000577 L 97.981542 2.001689 " stroke="currentColor" stroke-width="4" stroke-opacity="1" stroke-miterlimit="4"/>
      <path stroke-linecap="butt" transform="matrix(0.653836, 0.367421, -0.367421, 0.653836, 324.127605, 536.736785)" fill="none" stroke-linejoin="miter" d="M 0.00108195 1.997115 L 152.110329 2.00103 " stroke="currentColor" stroke-width="4" stroke-opacity="1" stroke-miterlimit="4"/>
      <path stroke-linecap="butt" transform="matrix(0.266582, 0.701023, -0.701023, 0.266582, 353.620445, 407.670095)" fill="none" stroke-linejoin="miter" d="M -0.00000180548 1.999497 L 264.9468 2.00127 " stroke="currentColor" stroke-width="4" stroke-opacity="1" stroke-miterlimit="4"/>
      <path stroke-linecap="butt" transform="matrix(-0.6238, 0.416381, -0.416381, -0.6238, 478.916355, 363.766672)" fill="none" stroke-linejoin="miter" d="M 0.00207183 2.000646 L 181.062608 1.999994 " stroke="currentColor" stroke-width="4" stroke-opacity="1" stroke-miterlimit="4"/>
      <path stroke-linecap="butt" transform="matrix(-0.508821, -0.551, 0.551, -0.508821, 425.841966, 395.094581)" fill="none" stroke-linejoin="miter" d="M -0.00238015 2.000246 L 146.867941 2.000717 " stroke="currentColor" stroke-width="4" stroke-opacity="1" stroke-miterlimit="4"/>
      <path stroke-linecap="butt" transform="matrix(-0.360752, 0.657539, -0.657539, -0.360752, 462.186196, 332.969564)" fill="none" stroke-linejoin="miter" d="M 0.00228296 1.998784 L 94.039242 2.001464 " stroke="currentColor" stroke-width="4" stroke-opacity="1" stroke-miterlimit="4"/>
      <path stroke-linecap="butt" transform="matrix(-0.573103, -0.48379, 0.48379, -0.573103, 425.979318, 395.224747)" fill="none" stroke-linejoin="miter" d="M 0.00197364 1.99906 L 143.660922 1.99771 " stroke="currentColor" stroke-width="4" stroke-opacity="1" stroke-miterlimit="4"/>
      <path stroke-linecap="butt" transform="matrix(-0.194114, 0.724444, -0.724444, -0.194114, 467.166988, 434.316502)" fill="none" stroke-linejoin="miter" d="M 0.00159642 1.998674 L 220.871668 2.000008 " stroke="currentColor" stroke-width="4" stroke-opacity="1" stroke-miterlimit="4"/>
      <path stroke-linecap="butt" transform="matrix(-0.520291, 0.540183, -0.540183, -0.520291, 423.927702, 595.366622)" fill="none" stroke-linejoin="miter" d="M -0.00204564 2.001378 L 269.674113 1.998819 " stroke="currentColor" stroke-width="4" stroke-opacity="1" stroke-miterlimit="4"/>
      <path stroke-linecap="butt" transform="matrix(-0.405523, -0.630913, 0.630913, -0.405523, 515.218562, 740.809087)" fill="none" stroke-linejoin="miter" d="M 0.00212618 2.001495 L 230.893736 1.999855 " stroke="currentColor" stroke-width="4" stroke-opacity="1" stroke-miterlimit="4"/>
 </g>
</svg>
